<?xml version="1.0" encoding="utf-8"?>
<!-- Generator: Adobe Illustrator 18.1.1, SVG Export Plug-In . SVG Version: 6.00 Build 0)  -->
<svg version="1.1" id="Layer_1" xmlns="http://www.w3.org/2000/svg" xmlns:xlink="http://www.w3.org/1999/xlink" x="0px" y="0px"
	 viewBox="0 0 252.2 128.8" enable-background="new 0 0 252.2 128.8" xml:space="preserve">
<polygon fill="#E82A79" points="37.5,102.2 37.3,66.7 76.8,26.8 112.1,26.7 "/>
<polygon fill="#8B1948" points="37.5,102.2 43.5,102.1 43.5,96.1 "/>
<polygon fill="#8B1948" points="106.2,32.8 112.2,32.8 112.1,26.8 "/>
<g>
	<path fill="#FFFFFF" d="M57.7,63l-1.6-0.5l0,0l1.3,0.9l3.6,3.6l-1.3,1.3l-7-6.9l1-1l6.3,1l1.6,0.5l0,0L60.3,61l-3.7-3.6l1.3-1.3
		l7,6.9l-1,1L57.7,63z"/>
	<path fill="#FFFFFF" d="M59.2,54.8l4.1-4.1l1.2,1.2l-2.7,2.8l1.6,1.6l2.5-2.5l1.2,1.2l-2.5,2.5l1.7,1.7l2.8-2.8l1.2,1.2l-4.1,4.2
		L59.2,54.8z"/>
	<path fill="#FFFFFF" d="M70.1,51.6l1.4,1.1l0,0l-1.1-1.4l-2.7-5l0.9-0.9l5.1,2.7l1.4,1.1l0,0l-1.1-1.4l-3-4.7l1.4-1.4l5.1,8.9
		l-0.9,0.9l-5.1-2.6l-1.2-0.9l0,0l0.9,1.2l2.6,5.1l-1,1l-8.9-5l1.5-1.5L70.1,51.6z"/>
	<path fill="#FFFFFF" d="M73.3,40.6l1.3-1.3l3.3,3.2l1.4,1.9l-0.8,0.8l-1.9-1.3L73.3,40.6z M79.5,47c-0.2-0.2-0.3-0.5-0.3-0.8
		c0-0.3,0.1-0.5,0.4-0.8c0.2-0.3,0.5-0.4,0.8-0.4c0.3,0,0.5,0.1,0.8,0.3c0.2,0.2,0.3,0.5,0.3,0.8c0,0.3-0.1,0.6-0.4,0.8
		c-0.2,0.2-0.5,0.4-0.8,0.4C80,47.3,79.7,47.2,79.5,47z"/>
</g>
<polygon fill="#E82A79" points="140.2,102.2 140,66.7 179.4,26.8 214.8,26.7 "/>
<polygon fill="#8B1948" points="140.2,102.2 146.2,102.1 146.2,96.1 "/>
<polygon fill="#8B1948" points="208.8,32.8 214.8,32.8 214.8,26.8 "/>
<g>
	<path fill="#FFFFFF" d="M148.8,75.5c-1.2-1.1-1.8-2.3-1.9-3.4s0.3-2.2,1.2-3.1c0.5-0.5,1-0.8,1.5-1c0.5-0.2,1.1-0.3,1.7-0.2
		c0.6,0.1,1.1,0.3,1.7,0.6c0.6,0.3,1.1,0.8,1.7,1.3c1.2,1.2,1.8,2.3,1.9,3.4c0.1,1.1-0.3,2.2-1.2,3.1c-0.5,0.5-1,0.9-1.6,1.1
		c-0.5,0.2-1.1,0.3-1.6,0.2c-0.6-0.1-1.1-0.3-1.7-0.6C149.9,76.5,149.4,76.1,148.8,75.5z M150.3,74.1c0.4,0.3,0.7,0.6,1.1,0.9
		c0.4,0.2,0.7,0.4,1,0.5c0.3,0.1,0.7,0.1,1,0c0.3-0.1,0.6-0.2,0.9-0.5c0.5-0.5,0.7-1,0.5-1.7c-0.1-0.6-0.6-1.4-1.4-2.2
		c-0.3-0.3-0.7-0.6-1-0.9s-0.7-0.4-1-0.5c-0.3-0.1-0.7-0.1-1,0c-0.3,0.1-0.6,0.2-0.9,0.5c-0.5,0.5-0.7,1.1-0.5,1.7
		C149,72.5,149.4,73.3,150.3,74.1z"/>
	<path fill="#FFFFFF" d="M157.3,66.7l-1.6-0.5l0,0.1l1.3,0.9l3.6,3.6l-1.3,1.3l-7-6.9l1-1l6.3,1l1.6,0.5l0,0l-1.2-0.9l-3.7-3.6
		l1.3-1.3l7,6.9l-1,1L157.3,66.7z"/>
	<path fill="#FFFFFF" d="M169.4,58c-0.2-0.2-0.5-0.3-0.8-0.3c-0.3,0-0.6,0.1-0.9,0.2c-0.3,0.1-0.7,0.3-1.1,0.4s-0.8,0.3-1.2,0.3
		c-0.4,0.1-0.8,0.1-1.2,0c-0.4-0.1-0.8-0.3-1.2-0.7c-0.3-0.3-0.6-0.7-0.7-1c-0.1-0.4-0.2-0.7-0.1-1.1c0-0.4,0.2-0.7,0.4-1.1
		c0.2-0.4,0.5-0.7,0.8-1.1c0.4-0.4,0.8-0.8,1.2-1c0.4-0.3,0.8-0.5,1.2-0.6l0.7,1.6c-0.2,0.1-0.5,0.2-0.9,0.4
		c-0.4,0.2-0.7,0.5-1.1,0.8c-0.3,0.3-0.5,0.6-0.5,0.9c0,0.3,0,0.5,0.3,0.8c0.2,0.2,0.4,0.3,0.7,0.3c0.3,0,0.6-0.1,0.9-0.2
		c0.3-0.1,0.7-0.3,1.1-0.4c0.4-0.2,0.8-0.3,1.2-0.3c0.4-0.1,0.8-0.1,1.2,0c0.4,0.1,0.8,0.3,1.2,0.7s0.6,0.7,0.8,1.1s0.2,0.8,0.2,1.2
		s-0.2,0.8-0.4,1.2c-0.2,0.4-0.5,0.8-0.9,1.2c-0.5,0.5-1,0.9-1.4,1.2c-0.5,0.3-0.8,0.5-1.1,0.6l-0.7-1.6c0.1,0,0.2-0.1,0.4-0.2
		c0.2-0.1,0.3-0.2,0.5-0.3c0.2-0.1,0.4-0.2,0.6-0.4c0.2-0.1,0.4-0.3,0.5-0.5c0.4-0.4,0.6-0.8,0.7-1.1
		C169.7,58.6,169.6,58.3,169.4,58z"/>
	<path fill="#FFFFFF" d="M175.4,52.6l-2.1,2.1l1,2.1l-1.3,1.4l-4.5-9.5l1-1l9.5,4.4l-1.4,1.4L175.4,52.6z M172.5,53.3l1.5-1.5
		l-2.1-1l-1.3-0.9l0,0l0.9,1.3L172.5,53.3z"/>
	<path fill="#FFFFFF" d="M183.9,47.1l-4.4,4.4l-7-6.9l1.3-1.4l5.8,5.7l3-3L183.9,47.1z"/>
	<path fill="#FFFFFF" d="M177.7,39.4l4.1-4.1l1.2,1.2l-2.7,2.8l1.6,1.6l2.5-2.5l1.2,1.2l-2.5,2.5l1.7,1.7l2.8-2.8l1.2,1.2l-4.1,4.2
		L177.7,39.4z"/>
	<path fill="#FFFFFF" d="M183.3,33.8l1.3-1.3l3.3,3.2l1.4,1.9l-0.8,0.8l-1.9-1.3L183.3,33.8z M189.4,40.2c-0.2-0.2-0.3-0.5-0.3-0.8
		c0-0.3,0.1-0.5,0.4-0.8c0.2-0.3,0.5-0.4,0.8-0.4c0.3,0,0.5,0.1,0.8,0.3c0.2,0.2,0.3,0.5,0.3,0.8c0,0.3-0.1,0.6-0.4,0.8
		c-0.2,0.2-0.5,0.4-0.8,0.4C189.9,40.5,189.7,40.4,189.4,40.2z"/>
</g>
</svg>
