<?xml version="1.0" encoding="utf-8"?>
<!-- Generator: Adobe Illustrator 18.1.1, SVG Export Plug-In . SVG Version: 6.00 Build 0)  -->
<svg version="1.1" id="Layer_1" xmlns="http://www.w3.org/2000/svg" xmlns:xlink="http://www.w3.org/1999/xlink" x="0px" y="0px"
	 viewBox="-192 341 226 112" enable-background="new -192 341 226 112" xml:space="preserve" width="226px" height="112px">
<polygon fill="#FF7F50" points="-66.9,364.2 -36.2,364.3 -1.9,399 -2,429.9 "/>
<polygon fill="#D93A00" points="-7.3,424.6 -7.3,429.8 -2,429.9 "/>
<polygon fill="#D93A00" points="-66.9,364.3 -67,369.5 -61.8,369.5 "/>
<polygon fill="#FF7F50" points="-156.2,364.2 -125.4,364.3 -91.2,399 -91.3,429.9 "/>
<polygon fill="#D93A00" points="-96.6,424.6 -96.6,429.8 -91.3,429.9 "/>
<polygon fill="#D93A00" points="-156.2,364.3 -156.2,369.5 -151,369.5 "/>
<g>
	<path fill="#FFFFFF" d="M-124.5,379.6l0.4-1.4l0,0l-0.8,1.1l-3.1,3.1l-1.1-1.1l6-6.1l0.9,0.9l-0.9,5.5l-0.4,1.4l0,0l0.8-1.1
		l3.1-3.2l1.1,1.1l-6,6.1l-0.9-0.9L-124.5,379.6z"/>
	<path fill="#FFFFFF" d="M-117.4,380.9l3.6,3.6l-1,1l-2.4-2.3l-1.4,1.4l2.2,2.2l-1,1l-2.2-2.2l-1.5,1.5l2.4,2.4l-1,1l-3.7-3.6
		L-117.4,380.9z"/>
	<path fill="#FFFFFF" d="M-114.6,390.4l-1,1.2l0,0l1.2-1l4.3-2.3l0.8,0.8l-2.3,4.4l-1,1.2l0,0l1.2-1l4.1-2.6l1.2,1.2l-7.7,4.4
		l-0.8-0.8l2.3-4.4l0.8-1l0,0l-1,0.8l-4.4,2.3l-0.9-0.9l4.3-7.7l1.3,1.3L-114.6,390.4z"/>
	<path fill="#FFFFFF" d="M-105.1,393.2l1.1,1.1l-2.8,2.9l-1.7,1.2l-0.7-0.7l1.1-1.7L-105.1,393.2z M-110.6,398.6
		c0.2-0.2,0.4-0.3,0.7-0.3c0.3,0,0.4,0.1,0.7,0.3c0.3,0.2,0.3,0.4,0.3,0.7c0,0.3-0.1,0.4-0.3,0.7c-0.2,0.2-0.4,0.3-0.7,0.3
		c-0.3,0-0.5-0.1-0.7-0.3c-0.2-0.2-0.3-0.4-0.3-0.7S-110.8,398.7-110.6,398.6z"/>
</g>
<g>
	<path fill="#FFFFFF" d="M-44.7,371.2c1-1,2-1.6,3-1.7c1-0.1,1.9,0.3,2.7,1c0.4,0.4,0.7,0.9,0.9,1.3c0.2,0.4,0.3,1,0.2,1.5
		c-0.1,0.5-0.3,1-0.5,1.5c-0.3,0.5-0.7,1-1.1,1.5c-1,1-2,1.6-3,1.7s-1.9-0.3-2.7-1c-0.4-0.4-0.8-0.9-1-1.4c-0.2-0.4-0.3-1-0.2-1.4
		c0.1-0.5,0.3-1,0.5-1.5C-45.5,372.1-45.2,371.7-44.7,371.2z M-43.4,372.5c-0.3,0.3-0.5,0.6-0.8,1c-0.2,0.3-0.3,0.6-0.4,0.9
		s-0.1,0.6,0,0.9s0.2,0.5,0.4,0.8c0.4,0.4,0.9,0.6,1.5,0.4c0.5-0.1,1.2-0.5,1.9-1.2c0.3-0.3,0.5-0.6,0.8-0.9s0.3-0.6,0.4-0.9
		c0.1-0.3,0.1-0.6,0-0.9c-0.1-0.3-0.2-0.5-0.4-0.8c-0.4-0.4-1-0.6-1.5-0.4C-42,371.3-42.7,371.7-43.4,372.5z"/>
	<path fill="#FFFFFF" d="M-37,378.5l0.4-1.4h-0.1l-0.8,1.1l-3.1,3.1l-1.1-1.1l6-6.1l0.9,0.9l-0.9,5.5l-0.4,1.4l0,0l0.8-1l3.1-3.2
		l1.1,1.1l-6,6.1L-38,384L-37,378.5z"/>
	<path fill="#FFFFFF" d="M-29.4,389.1c0.2-0.2,0.3-0.4,0.3-0.7s-0.1-0.5-0.2-0.8c-0.1-0.3-0.3-0.6-0.3-1s-0.3-0.7-0.3-1
		c-0.1-0.3-0.1-0.7,0-1c0.1-0.3,0.3-0.7,0.6-1c0.3-0.3,0.6-0.5,0.9-0.6c0.3-0.1,0.6-0.2,1-0.1c0.3,0,0.6,0.2,1,0.3
		c0.3,0.2,0.6,0.4,1,0.7c0.3,0.3,0.7,0.7,0.9,1c0.3,0.3,0.4,0.7,0.5,1l-1.4,0.6c-0.1-0.2-0.2-0.4-0.3-0.8s-0.4-0.6-0.7-1
		c-0.3-0.3-0.5-0.4-0.8-0.4c-0.3,0-0.4,0-0.7,0.3c-0.2,0.2-0.3,0.3-0.3,0.6c0,0.3,0.1,0.5,0.2,0.8c0.1,0.3,0.3,0.6,0.3,1
		c0.2,0.3,0.3,0.7,0.3,1c0.1,0.3,0.1,0.7,0,1c-0.1,0.3-0.3,0.7-0.6,1c-0.3,0.3-0.6,0.5-1,0.7c-0.3,0.2-0.7,0.2-1,0.2
		c-0.3,0-0.7-0.2-1-0.3c-0.3-0.2-0.7-0.4-1-0.8c-0.4-0.4-0.8-0.9-1-1.2c-0.3-0.4-0.4-0.7-0.5-1l1.4-0.6c0,0.1,0.1,0.2,0.2,0.3
		c0.1,0.2,0.2,0.3,0.3,0.4c0.1,0.2,0.2,0.3,0.3,0.5c0.1,0.2,0.3,0.3,0.4,0.4c0.3,0.3,0.7,0.5,1,0.6C-30,389.3-29.7,389.2-29.4,389.1
		z"/>
	<path fill="#FFFFFF" d="M-24.7,394.3l-1.8-1.8l-1.8,0.9l-1.2-1.1l8.3-3.9l0.9,0.9l-3.8,8.3l-1.2-1.2L-24.7,394.3z M-25.3,391.8
		l1.3,1.3l0.9-1.8l0.8-1.1l0,0l-1.1,0.8L-25.3,391.8z"/>
	<path fill="#FFFFFF" d="M-20,401.7l-3.8-3.8l6-6.1l1.2,1.1l-5,5l2.6,2.6L-20,401.7z"/>
	<path fill="#FFFFFF" d="M-13.3,396.3l3.6,3.6l-1,1l-2.4-2.3l-1.4,1.4l2.2,2.2l-1,1l-2.2-2.2l-1.5,1.5l2.4,2.4l-1,1l-3.7-3.6
		L-13.3,396.3z"/>
	<path fill="#FFFFFF" d="M-8.4,401.2l1.1,1.1l-2.8,2.9l-1.7,1.2l-0.7-0.7l1.1-1.7L-8.4,401.2z M-14,406.5c0.2-0.2,0.4-0.3,0.7-0.3
		c0.3,0,0.4,0.1,0.7,0.3c0.3,0.2,0.3,0.4,0.3,0.7c0,0.3-0.1,0.4-0.3,0.7c-0.2,0.2-0.4,0.3-0.7,0.3s-0.5-0.1-0.7-0.3
		c-0.2-0.2-0.3-0.4-0.3-0.7C-14.2,406.9-14.1,406.7-14,406.5z"/>
</g>
</svg>
