<?xml version="1.0" encoding="utf-8"?>
<!-- Generator: Adobe Illustrator 18.1.1, SVG Export Plug-In . SVG Version: 6.00 Build 0)  -->
<svg version="1.1" id="Layer_1" xmlns="http://www.w3.org/2000/svg" xmlns:xlink="http://www.w3.org/1999/xlink" x="0px" y="0px"
	 viewBox="0 0 35 29" enable-background="new 0 0 35 29" xml:space="preserve">
<path fill="#FFFFFF" d="M9,5.1v4.1h1l1-4.1H9z"/>
<path fill="#FFFFFF" d="M34,21.1v-6.6c0-1.5-0.1-3.1-1.2-4.2l-4-4.1c-0.5-0.5-1.5-0.9-2.2-0.9H24V1.3C24,0.6,23.4,0,22.7,0H1.3
	C0.6,0,0,0.6,0,1.3v21.1c0,1.5,1.6,1.3,2.6,1.3c0,2.9,2.3,5.3,5.2,5.3c2.9,0,5.2-2.4,5.2-5.3h7.8c0,2.9,2.3,5.3,5.2,5.3
	c2.9,0,5.2-2.4,5.2-5.3h1.3c1,0,2.6,0.2,2.6-1.3C35,21.7,34.7,21.1,34,21.1z M5,15.2H4V4.1h3v1H5v4.1h2v1H5V15.2z M7.8,26.3
	c-1.4,0-2.6-1.2-2.6-2.6c0-1.4,1.2-2.6,2.6-2.6c1.4,0,2.6,1.2,2.6,2.6C10.4,25.1,9.2,26.3,7.8,26.3z M11,10.2l1,5.1h-1l-1-5.1H9v5.1
	H8V4.1h3l1,1l-1,4.1l-1,0.5L11,10.2z M16,5.1h-2v4.1h2v1h-2v4.1h2v1h-3V4.1h3V5.1z M20,5.1h-2v4.1h2v1h-2v4.1h2v1h-3V4.1h3V5.1z
	 M25.9,26.3c-1.4,0-2.6-1.2-2.6-2.6c0-1.4,1.2-2.6,2.6-2.6c1.4,0,2.6,1.2,2.6,2.6C28.5,25.1,27.3,26.3,25.9,26.3z M31.1,13.2H24V7.9
	h2.5c0.1,0,0.4,0.1,0.4,0.2l4,4c0.1,0.1,0.2,0.4,0.2,0.5V13.2z"/>
</svg>
