<?xml version="1.0" encoding="utf-8"?>
<!-- Generator: Adobe Illustrator 19.2.1, SVG Export Plug-In . SVG Version: 6.00 Build 0)  -->
<svg version="1.1" id="Capa_1" xmlns="http://www.w3.org/2000/svg" xmlns:xlink="http://www.w3.org/1999/xlink" x="0px" y="0px"
	 viewBox="0 0 585.4 585.4" style="enable-background:new 0 0 585.4 585.4;" xml:space="preserve">
<style type="text/css">
	.st0{fill:#FFFFFF;}
</style>
<g>
	<g>
		<path class="st0" d="M292.7,0c-94.4,0-171.2,76.8-171.2,171.2V269c0,1.1-1.4,3-2.4,3.3c-9.3,3.1-16.8,5.8-23.7,8.4
			C87.2,283.9,81,293,81,301.9v224.6c0,8.8,6.2,17.9,14.3,21.2c63.1,25,129.5,37.7,197.4,37.7s134.3-12.7,197.4-37.7
			c8.2-3.2,14.3-12.3,14.3-21.2V301.9c0-8.9-6.2-18-14.4-21.2c-6.9-2.7-14.4-5.3-23.7-8.4c-1.1-0.4-2.4-2.2-2.4-3.3v-97.8
			C463.9,76.8,387.1,0,292.7,0z M246.1,370.3c0-25.8,20.9-46.6,46.6-46.6c25.7,0,46.6,20.9,46.6,46.6c0,17.1-9.6,31.4-23.3,39.5
			v77.1c0,12.9-10.4,23.3-23.3,23.3c-12.9,0-23.3-10.4-23.3-23.3v-77.1C255.7,401.7,246.1,387.4,246.1,370.3z M405,171.2v84.4
			c-36.8-7.9-74.6-11.9-112.3-11.9c-37.7,0-75.4,4-112.3,11.9v-84.3c0-61.9,50.4-112.3,112.3-112.3C354.6,58.9,405,109.2,405,171.2z
			"/>
	</g>
</g>
</svg>
