<?xml version="1.0" encoding="utf-8"?>
<!-- Generator: Adobe Illustrator 17.0.2, SVG Export Plug-In . SVG Version: 6.00 Build 0)  -->
<!DOCTYPE svg PUBLIC "-//W3C//DTD SVG 1.1//EN" "http://www.w3.org/Graphics/SVG/1.1/DTD/svg11.dtd">
<svg version="1.1" id="Layer_1" xmlns="http://www.w3.org/2000/svg" xmlns:xlink="http://www.w3.org/1999/xlink" x="0px" y="0px"
	 width="130px" height="34px" viewBox="0 0 130 34" enable-background="new 0 0 130 34" xml:space="preserve">
<g>
	<path fill="#404041" d="M12.224,28.253c-1.441,2.587-2.416,3.519-5.468,3.519c-3.476,0-6.147-2.077-6.147-5.935
		c0-0.466,0-1.824,0-2.373c0-0.382,0.381-0.425,2.077-0.425c1.697,0,2.501,0,2.501,0.339c0,0.551,0,1.357,0,1.781
		c0,1.568,0.296,2.5,1.568,2.5c1.145,0,1.442-0.848,1.527-1.568c0.042-0.72,0.085-1.356,0.085-1.95
		c0-3.687-8.012-8.816-8.012-15.175c0-1.187,0.509-3.137,1.06-4.112c0.551-0.976,2.077-2.756,4.959-2.756
		c3.603,0,6.02,2.671,6.02,5.765c0,0.636,0,1.357,0,2.078c0,0.295-0.594,0.253-2.035,0.253c-1.611,0-2.459,0-2.459-0.296
		c0-0.551,0-1.568,0-1.949c0-1.188-0.806-1.908-1.526-1.908c-0.763,0-1.357,0.678-1.442,1.356C4.848,8.034,4.806,8.541,4.806,9.092
		c0,5.002,8.096,8.436,8.096,15.346C12.903,25.709,12.733,27.321,12.224,28.253z"/>
	<path fill="#404041" d="M27.696,6.253c-0.508,0-1.102,0-1.823,0c-0.466,0-1.017,0-1.229,0.085
		c-0.382,0.297-0.297,1.017-0.297,1.568c0,9.369,0,14.159,0,23.442c0,0.382-0.466,0.424-2.458,0.424c-1.781,0-2.162,0-2.162-0.424
		c0-9.283,0-14.116,0-23.442c0-0.551,0.085-1.271-0.296-1.568c-0.212-0.085-0.763-0.085-1.229-0.085c-0.593,0-1.187,0-1.568,0
		c-0.636,0-0.763-0.297-0.763-2.077c0-1.78,0.085-2.077,0.593-2.077c2.671,0,8.521,0,11.191,0c0.508,0,0.55,0.382,0.55,1.993
		C28.205,6.041,28.163,6.253,27.696,6.253z"/>
	<path fill="#404041" d="M41.516,31.772c-1.23,0-2.035,0.085-2.12-0.509c-0.339-2.374-0.508-3.985-0.847-6.316
		c-0.043-0.424-0.551-0.338-1.229-0.338c-0.805,0-1.229-0.085-1.272,0.338c-0.254,2.374-0.424,3.943-0.636,6.401
		c-0.042,0.466-0.975,0.424-2.332,0.424c-0.636,0-2.119,0-2.077-0.382c1.568-11.064,2.67-18.483,4.069-28.698
		c0.085-0.593,1.272-0.636,2.205-0.636c1.059,0,2.205,0.042,2.29,0.762c1.652,10.852,2.585,17.466,4.281,28.529
		C43.932,31.814,42.661,31.772,41.516,31.772z M37.658,12.866c0-0.212-0.085-1.145-0.381-1.145c-0.213,0-0.297,1.059-0.297,1.229
		c-0.212,3.307-0.382,5.427-0.551,8.139c-0.042,0.297,0.212,0.339,0.848,0.339c0.551,0,0.975,0.085,0.932-0.296
		C37.998,17.994,37.87,16.215,37.658,12.866z"/>
	<path fill="#404041" d="M60.464,31.772c-1.102,0-1.569-0.085-1.865-1.145c-1.4-4.917-1.908-7.163-3.392-12.504
		c-0.255-0.934-0.594-2.501-0.89-2.501c-0.297,0-0.297,0.891-0.297,1.441c0,5.51,0,8.139,0,13.946c0,0.679-0.127,0.764-2.331,0.764
		c-2.12,0-2.12-0.085-2.12-0.721c0-10.597,0-18.228,0-28.359c0-0.593,0.085-0.593,1.95-0.593c1.822,0,2.035,0.169,2.374,1.357
		c0.89,3.475,2.119,8.012,3.433,12.505c0.085,0.424,0.255,1.102,0.509,1.102c0.297,0,0.297-0.805,0.297-1.272
		c0-4.494,0-8.054,0-12.93c0-0.677,0.127-0.762,2.246-0.762c2.162,0,2.204,0.043,2.204,0.72c0,6.867,0,17.126,0,27.724
		C62.584,31.644,62.626,31.772,60.464,31.772z"/>
	<path fill="#404041" d="M79.879,29.948c-1.358,1.399-3.307,1.823-4.875,1.823c-1.399,0-3.306,0-4.409,0
		c-0.551,0-0.89,0.042-1.059-0.297c-0.17-0.212-0.17-0.592-0.17-1.016c0-8.394,0-18.822,0-27.045c0-0.466,0-0.848,0.17-1.06
		c0.255-0.297,0.551-0.255,1.102-0.255c1.017,0,3.179,0,4.324,0c1.822,0,3.687,0.509,5.002,1.738
		c1.229,1.145,1.737,2.839,1.737,4.662c0,6.444,0,10.386,0,16.828C81.701,26.897,81.32,28.464,79.879,29.948z M77.124,9.389
		c0-0.89-0.043-1.695-0.551-2.332c-0.339-0.338-0.636-0.508-1.399-0.508c-0.678,0-1.017,0-1.144,0.17
		c-0.127,0.169-0.127,0.338-0.127,0.593c0,6.613,0,12.589,0,19.075c0,0.382,0,0.68,0.169,0.848c0.127,0.128,0.593,0.085,0.975,0.085
		c0.509,0,1.145-0.17,1.611-0.764c0.509-0.72,0.466-1.441,0.466-2.077C77.124,18.8,77.124,15.07,77.124,9.389z"/>
	<path fill="#404041" d="M90.35,31.729c-2.078,0-2.163,0-2.163-0.593c0-10.64,0-18.143,0-28.318c0-0.635,0.17-0.677,2.163-0.677
		c2.246,0,2.373,0.042,2.373,0.719c0,6.825,0,17.424,0,28.19C92.724,31.687,92.681,31.729,90.35,31.729z"/>
	<path fill="#404041" d="M110.485,28.253c-1.442,2.587-2.416,3.519-5.468,3.519c-3.477,0-6.147-2.077-6.147-5.935
		c0-0.466,0-1.824,0-2.373c0-0.382,0.381-0.425,2.076-0.425c1.696,0,2.501,0,2.501,0.339c0,0.551,0,1.357,0,1.781
		c0,1.568,0.298,2.5,1.57,2.5c1.144,0,1.44-0.848,1.525-1.568c0.044-0.72,0.086-1.356,0.086-1.95c0-3.687-8.012-8.816-8.012-15.175
		c0-1.187,0.508-3.137,1.06-4.112c0.551-0.976,2.076-2.756,4.959-2.756c3.604,0,6.019,2.671,6.019,5.765c0,0.636,0,1.357,0,2.078
		c0,0.295-0.593,0.253-2.034,0.253c-1.612,0-2.459,0-2.459-0.296c0-0.551,0-1.568,0-1.949c0-1.188-0.806-1.908-1.526-1.908
		c-0.763,0-1.356,0.678-1.441,1.356c-0.084,0.636-0.127,1.144-0.127,1.695c0,5.002,8.097,8.436,8.097,15.346
		C111.164,25.709,110.994,27.321,110.485,28.253z"/>
	<path fill="#404041" d="M127.398,31.729c-2.246,0-2.332-0.042-2.332-0.847c0-4.028,0-7.207,0-11.234c0-0.509,0-0.934-0.381-0.976
		c-0.508-0.127-2.374-0.042-2.543,0c-0.339,0.128-0.339,0.509-0.339,1.061c0,4.111,0,7.206,0,11.317
		c0,0.679-0.127,0.679-2.332,0.679c-2.078,0-2.163,0-2.163-0.593c0-10.64,0-18.058,0-28.232c0-0.636,0.127-0.763,2.163-0.763
		c2.246,0,2.373,0.126,2.373,0.805c0,3.476,0,6.484,0,9.92c0,0.721,0,1.186,0.552,1.356c0.381,0.042,1.865,0.127,2.331,0
		c0.339-0.128,0.339-0.594,0.339-1.229c0-3.562,0-7.164,0-10.216c0-0.721,0.255-0.636,2.29-0.636c2.162,0,2.289,0,2.289,0.677
		c0,10.048,0,17.593,0,28.064C129.646,31.687,129.646,31.729,127.398,31.729z"/>
</g>
</svg>
