<?xml version="1.0" encoding="utf-8"?>
<!-- Generator: Adobe Illustrator 18.1.1, SVG Export Plug-In . SVG Version: 6.00 Build 0)  -->
<svg version="1.1" id="Layer_1" xmlns="http://www.w3.org/2000/svg" xmlns:xlink="http://www.w3.org/1999/xlink" x="0px" y="0px"
	 viewBox="0 0 100 60" enable-background="new 0 0 100 60" xml:space="preserve">
<rect x="22.9" y="34.8" fill="#F8BC32" stroke="#000000" stroke-miterlimit="10" width="54.4" height="9.1"/>
<rect x="64" y="20.9" fill="#F8BC32" stroke="#000000" stroke-miterlimit="10" width="17.7" height="23"/>
<rect x="20.5" y="15.4" fill="#F8BC32" stroke="#000000" stroke-miterlimit="10" width="46.6" height="23.1"/>
<circle fill="#F8BC32" stroke="#000000" stroke-miterlimit="10" cx="31.2" cy="43.5" r="4.7"/>
<circle fill="#F8BC32" stroke="#000000" stroke-miterlimit="10" cx="72.2" cy="43.5" r="4.7"/>
<rect x="68.7" y="22.7" width="11.3" height="8.5"/>
<g>
	<path d="M27.5,20h6.2v1.4H29v4.9h4.4v1.4H29V34h-1.5V20z"/>
	<path d="M35.7,20.2c0.4-0.1,0.9-0.2,1.5-0.2c0.5,0,1-0.1,1.5-0.1c0.5,0,1,0.1,1.5,0.2c0.5,0.1,0.9,0.3,1.2,0.6
		c0.3,0.3,0.6,0.7,0.8,1.2c0.2,0.5,0.3,1.1,0.3,1.8c0,1.1-0.2,2-0.7,2.7c-0.5,0.7-1.1,1.1-1.8,1.3l0.8,0.7l2.8,5.6h-1.7l-3-6.1
		l-1.5-0.3V34h-1.5V20.2z M37.2,26.6h1.2c0.8,0,1.4-0.2,1.8-0.7c0.4-0.5,0.7-1.2,0.7-2.1c0-0.7-0.2-1.3-0.5-1.8
		c-0.4-0.5-0.9-0.7-1.6-0.7c-0.3,0-0.5,0-0.8,0c-0.3,0-0.5,0-0.7,0.1V26.6z"/>
	<path d="M45.3,20h6.2v1.4h-4.7v4.7h4.3v1.4h-4.3v5.1h4.8V34h-6.3V20z"/>
	<path d="M53.9,20h6.2v1.4h-4.7v4.7h4.3v1.4h-4.3v5.1h4.8V34h-6.3V20z"/>
</g>
</svg>
